<?xml version="1.0" encoding="UTF-8"?>
<svg id="Layer_4" data-name="Layer 4" xmlns="http://www.w3.org/2000/svg" xmlns:xlink="http://www.w3.org/1999/xlink" viewBox="0 0 1920 400">
  <defs>
    <style>
      .cls-1 {
        fill: #3d2b29;
      }

      .cls-2 {
        fill: #9c4333;
      }

      .cls-3 {
        fill: url(#linear-gradient);
      }
    </style>
    <linearGradient id="linear-gradient" x1="960" y1="398.02" x2="960" y2="2.54" gradientUnits="userSpaceOnUse">
      <stop offset="0" stop-color="#241e1f"/>
      <stop offset="1" stop-color="#120e0f"/>
    </linearGradient>
  </defs>
  <rect class="cls-3" y="0" width="1920" height="400"/>
  <polyline class="cls-1" points="0 390 0 236 14.08 236 40.08 214 122.08 214 161.08 241 262.07 241 327.76 286.34 528.1 286.34 547.4 300.43 617.83 300.43 650.18 287.91 812.96 287.91 833.05 297.3 994.51 297.3 1044.6 322.34 1146.33 322.34 1205.74 267.56 1352.93 267.56 1392.06 226.86 1460.32 226.86 1485.71 206.51 1780.22 206.51 1799.61 223.73 1816.22 223.73 1838.13 245.64 1920.82 245.64 1919.74 390 .08 390"/>
  <polygon class="cls-2" points="0 400.02 0 295.27 45.17 295.27 65 270.02 206.39 270.02 247.87 308.28 493.61 308.28 520.28 334.95 751.87 334.95 771.31 315.5 913.08 315.5 939.3 341.72 1176 341.72 1223.85 293.87 1271 293.87 1304.43 260.44 1338.17 260.44 1356.8 241.82 1714.47 241.82 1735.84 263.18 1805.26 263.18 1834.61 292.53 1920.52 292.53 1920.11 400.1 0 400.02"/>
  <path class="cls-2" d="M1419.03,117.51c2.42-.21,28.21-2.35,31.92,1.64.07.07.15.11.25.11,2.93,0,15.54,0,16.82-.44s20.45-3.05,26.11-2.61,38.69.44,54.81,44.32c.02.05.02.1.02.15-.05.63-.37,5.15.44,5.15,0,0,4.75,7.35,4.36,12.13,0,.03,0,.06,0,.1.81,3.52,6.3,14.72,7.86,17.27.14.23-.03.52-.29.52h-.02c-.27,0-.43.29-.3.52,1.92,3.28,12.32,21.17,12.32,24.72q-.44-.44-.44,0c.2,4.11,1.17,12.27-2.05,18.9-.07.14-.23.22-.39.19-2.74-.64-15.21-4.46-19.12-10.17-.19-.28-.63-.15-.63.19v.08c0,.31-.37.46-.58.25-1.5-1.5-5.45-5.64-6.68-8.9-.12-.33-.61-.27-.66.08l-.04.28c-.04.27-.37.39-.57.21-1.29-1.19-4.84-4.89-6.68-11.11-.11-.38-.67-.31-.67.09v.74c0,.34-.44.47-.63.19-1.06-1.57-3.2-4.8-4.37-6.89-.17-.3-.63-.2-.64.15-.28,7.02-3.68,35.07-9.55,36.38-.03,0-.06,0-.09,0h-9.96s-4.69,0-4.79-3.38c0-.06.02-.13.05-.19,1.69-2.96,2.61-4.66,9.73-4.7.14,0,.27-.08.32-.21,1-2.55,8.47-25.02-4.63-34.31-.29-.2-.66.12-.5.44,1.57,3.19,1.57,5.06,1.57,6.23,0,1.74-11.75,33.94-13.49,35.25-.22,1.09-18.06,3.26-17.4-2.56,0-.04,0-.07,0-.11.49-5.59,10.01-4.3,10.44-4.73s15.23-26.98,1.74-36.55c-11.02-8.82-13.98-15.16-14.63-16.91-.08-.22-.35-.29-.53-.14-.87.71-3.39,2.3-8.88,2.68-.18.01-.32.16-.32.34v1.06c0,.2-.17.36-.36.34-1.46-.09-6.88-.45-8.75-1.08-.23-.08-.46.08-.46.32v2.54c0,.21-.19.38-.41.34l-8.76-1.59c-.21-.04-.41.12-.41.34v.95c0,.2-.17.36-.37.34-1.72-.16-8.9-.84-11.38-1.56-.22-.06-.43.1-.43.33v7.75c0,.23-.23.4-.45.33l-.38-.13c-.23-.08-.46.1-.45.34.08,1.79.39,7.86.71,9.53.04.21-.12.41-.34.41h-.06c-.19,0-.34.15-.34.34,0,1.73-.05,9.49-.41,11.29-.02.08,0,.16.03.23.65,1.3.65,1.15.85,1.73.08.23-.1.48-.35.46-1.02-.09-1.33.47-1.4.67-.02.04-.02.09-.02.14.04.71.45,7.41,1.23,8.55.05.08.07.18.04.28-.33,1.07-3.03,3.17-3.45,8.06,0,.02,0,.03,0,.05-.44,1.77-1.72,8.42-3.91,8.68-5.44.65-15.45.65-15.23-3.01,0-.02,0-.05,0-.07.02-2.15,1.74-5.14,7.67-5.61.1,0,.2-.06.26-.14,2.5-3.45,2.08-6.49,1.65-13.8,0-3.43-3.01-21.25-4.34-26.18-.1-.36-.61-.33-.67.04-.83,5.37-3.25,24.81-3.26,28.73,0,.01,0,.02,0,.04.41,3.38-1.65,4.29-2.55,5.55-.04.06-.06.13-.06.2-.03,2.05-1.09,13.6-6.49,13.81-.02,0-.04,0-.06,0-5.23,0-14.33,1.29-13.89-4.35.43-6.03,7.25-4.39,9.5-5.62.06-.03.1-.08.14-.13,1-1.75,4.96-22.3-2.65-50.72-.02-.06-.05-.12-.1-.17-1.53-1.36-12.36-7.04-14.79-10.92-.16-.26-.55-.21-.63.08,0,.01,0,.03-.01.04-.08.29-.47.35-.63.09-1.33-2.22-5.16-8.63-6.53-11.1-.15-.27-.54-.22-.63.08-.14.49-.28.87-.39,1.16-.1.27-.46.3-.61.06-1.16-1.89-4.8-7.91-4.44-9.01l-.17.7c-.08.33-.54.36-.65.04-.53-1.42-1.45-4.08-1.71-6.21-.04-.31-.43-.41-.62-.16-.26.34-.51.55-.71.67-.22.13-.5,0-.52-.26-.18-2.26-1.14-12.4-3.76-13.44-.08-.03-.16-.02-.24,0-2.45.84-14.12,1.25-15.95.84-.02,0-.05,0-.07,0-6.22.2-11.37-4.04-11.07-8.75,0-.11.06-.21.15-.27,4.92-3.36,19.37-2.66,17.93-17.43,0-.06,0-.13.03-.18,1.72-3.41,5.05-8.82,7.62-9.86.12-.05.21-.16.22-.29.13-1.6-1.74-9.3-3.7-13.2-.18-.36-.28-.76-.28-1.17-.04-3.83,1.42-3.2,3.07-2.38,1.74.87,10.01,6.53,10.44,6.53s.44-6.96,3.92-5.22,8.27,8.27,9.57,8.7,11.49,2.56,15.93,7.22c.1.11.12.27.05.4-.3.56-.72,1.23-.97,1.62-.11.18-.05.41.15.5,1.29.58,5.62,2.54,6.77,3.47.16.13.17.37.03.51l-.39.39c-.14.14-.14.36,0,.49,1.19,1.09,6.12,5.58,8.38,6.55.22.1.28.39.11.56l-.53.53c-.18.18-.11.48.12.56,1.41.52,5.34,2.04,6.15,2.96.07.08.17.11.27.1Z"/>
</svg>