<?xml version="1.0" encoding="UTF-8"?>
<svg id="Full_Logo" data-name="Full Logo" xmlns="http://www.w3.org/2000/svg" viewBox="0 0 1646.72 339.51">
  <defs>
    <style>
      .cls-1 {
        fill: #fff;
      }
    </style>
  </defs>
  <g id="Logotype">
    <g id="logotype">
      <g id="hexandcube">
        <path class="cls-1" d="M1646.72,186.95c-.02,3.33-.28,6.65-.78,9.94h-81.11c2.45,12.5,10.41,18.97,22.29,18.97,8.79,0,16.13-3.85,19.76-10.23h37.44c-7.69,24.87-29.79,40.42-57.2,40.42-34.08,0-59.32-24.86-59.32-58.16s25.04-58,59.32-58,59.59,25.07,59.59,57.05h0Zm-81.23-10.84h44.16c-3.3-10.9-11.17-16.78-22.53-16.78-10.96,0-18.59,5.94-21.63,16.77h0Z"/>
        <path class="cls-1" d="M1463.57,130.08c33.64,0,57.39,24.11,57.39,57.99s-23.76,57.99-57.39,57.99c-12.02,.13-23.7-4-32.95-11.66l-3.55,8.13h-27.84V94.12h37.19v43.48c8.17-4.99,17.58-7.6,27.16-7.52h-.02Zm19.42,58.01c0-14.24-10.36-24.86-24.45-24.86s-24.45,10.63-24.45,24.86,10.36,24.75,24.45,24.75,24.45-10.64,24.45-24.75Z"/>
        <path class="cls-1" d="M1273.4,195.69v-62.21h37.63v60.54c0,11.51,6.19,18.27,16.24,18.27s16.13-6.88,16.13-18.27v-60.54h37.63v62.21c0,30.5-21.49,50.37-53.76,50.37s-53.87-19.87-53.87-50.37Z"/>
        <path class="cls-1" d="M1204.25,246.05c-35.03,0-60.32-24.49-60.32-58.22s25.17-57.75,60.44-57.75c30.69,0,53.72,19.31,57.83,48.31h-36.65c-3.19-8.96-11.77-14.88-21.3-14.7-13.23,0-22.64,10.02-22.64,24.22s9.53,24.47,22.64,24.47c10.1,0,18.27-6.17,21.39-15.9h36.97c-4.26,29.6-27.6,49.55-58.35,49.55v.03Z"/>
        <path class="cls-1" d="M1130.65,94.12V242.48h-27.84l-3.55-8.13c-9.23,7.7-20.91,11.87-32.95,11.75-33.5,0-57.39-24.31-57.39-58.19s23.87-58.01,57.37-58.01c9.59-.07,19,2.56,27.16,7.58v-43.37h37.2Zm-34.86,93.87c0-14.23-10.36-24.95-24.45-24.95s-24.45,10.72-24.45,24.95,10.36,24.95,24.45,24.95,24.45-10.72,24.45-24.95Z"/>
        <path class="cls-1" d="M996.82,176.02v66.46h-37.62v-61.28c0-12.65-4.78-18.97-14.25-18.97-11.77,0-18.48,8.18-18.48,22.05v58.2h-37.65v-109.01h26.39l5.2,11.23c8.15-9.04,20.25-14.46,34.41-14.46,25.34,0,42,17.99,42,45.76Z"/>
        <path class="cls-1" d="M869.18,133.37v109h-29.08l-3.22-7.71c-9.33,7.49-20.98,11.52-32.96,11.4-33.4,0-57.28-24.32-57.28-58.2s23.88-57.82,57.28-57.82c12.16-.12,23.98,4.04,33.37,11.75l3.85-8.43h28.04Zm-35.78,54.59c0-14.14-10.36-24.77-24.45-24.77s-24.45,10.63-24.45,24.77,10.36,24.86,24.45,24.86,24.45-10.63,24.45-24.86Z"/>
        <path class="cls-1" d="M709.55,242.48l-17.93-32.29-18.29,32.29h-41.58l36.22-56.55-33.57-52.45h41.52l15.8,27.49,16.51-27.45h40.95l-33.85,51.5,36.3,57.54-42.08-.08Z"/>
        <path class="cls-1" d="M637.12,186.95c-.02,3.33-.28,6.65-.78,9.94h-81.15c2.46,12.5,10.42,18.97,22.3,18.97,8.79,0,16.13-3.85,19.75-10.23h37.44c-7.69,24.87-29.78,40.42-57.19,40.42-34.08,0-59.33-24.86-59.33-58.16s25.04-58,59.33-58c35.18,0,59.63,25.07,59.63,57.05Zm-81.23-10.84h44.1c-3.3-10.9-11.17-16.78-22.53-16.78-10.97,0-18.57,5.94-21.62,16.77h.05Z"/>
        <path class="cls-1" d="M505.13,176.84v65.64h-37.63v-61.28c0-12.58-4.43-18.97-14.24-18.97-11.38,0-18.49,8.06-18.49,22.05v58.2h-37.62V94.12h37.62v46.53c8.25-6.68,18.54-10.34,29.16-10.39,25.08,0,41.2,18.33,41.2,46.59Z"/>
      </g>
    </g>
  </g>
  <g id="Logomark">
    <g id="Fox">
      <g id="Ear">
        <path class="cls-1" d="M169.72,52.13c-7.24-3.92-14.78-5.88-21.37-6.91,4.23-5.08,10.72-12.52,18.03-19.69,15.91-15.58,28.79-23.13,36.3-21.26,1.33,.33,2.17,1.08,2.8,2.48,1.01,2.24,1.84,6.98,0,16.86-1.27,6.86-3.64,15.2-7.04,24.77-3.12,8.77-6.55,16.98-9.08,22.78-.45-.78-.92-1.54-1.41-2.29-4.59-7.05-10.72-12.68-18.22-16.74Z"/>
      </g>
      <g id="Muzzle">
        <path class="cls-1" d="M53.05,180.05c1.69-3.19,1.16-5.74,.42-7.32-.8-1.69-2.07-2.78-3.01-3.58,.9-1.07,3.11-3.2,8.47-6.9,2.44-1.4,3.69-3.24,3.74-5.46,.08-3.51-2.87-5.31-4.83-6.5l-.15-.09c1.06-.67,2.78-1.61,5.57-2.82,5.37-2.32,13.38-5.06,23.81-8.15,5.91-.24,8.87,2.36,12.91,5.92,4.04,3.56,9.08,8,17.79,9.34,1.84,.28,3.71,.41,5.57,.4,8.43,0,18.9-2.48,31.79-7.51,2.63-.7,4.58,.92,9.33,5.57,7.72,7.56,19.21,18.79,45.53,15.35,.38,1.02,.84,2,1.39,2.94,2.18,3.7,5.44,6.21,9.14,7.2-1.25,2.49-4.28,5.93-11.53,8.97-11.47,4.8-35.89,9.31-87.1,3.48l-.31-.04h-.32c-7.34,.29-12.84,2.61-17.26,4.47-7.43,3.13-10.83,4.55-18.72-3.23l-.08-.08c-3.25-3.05-6.49-2.86-8.62-2.17-2.13,.7-3.87,2.12-5.38,3.37-.49,.41-1.17,.97-1.67,1.31-.4-.53-1.08-1.67-1.97-3.98-.3-1.24-1.01-2.35-1.99-3.13-2.48-1.97-5.86-1.5-9.79-.95-1.46,.2-4.24,.59-5.68,.44,.16-.94,.76-2.98,2.88-6.79l.06-.09Z"/>
      </g>
      <ellipse id="Nose" class="cls-1" cx="224.17" cy="163.34" rx="6.56" ry="6.77"/>
      <g id="Body">
        <path class="cls-1" d="M286.44,339.51H38.26c-5.08-15.77-8.37-34.45-9.29-56.55-.07-1.61-.12-2.88-.19-3.82-.1-1.39-.25-3.49-2.15-4.8-2.84-1.95-6-.5-8.55,.69,0-1.55,.04-3.44,.08-5.12,.32-14.49,.13-24.24-5.13-27.63-2.69-1.74-5.25-2.11-7.6-1.11-.95,.42-1.82,1.02-2.54,1.79-.34-2.59-.53-7.39,.16-16.09,.76-9.52,2.24-19.86,3.13-26.03,.73-5.09,.82-5.78,.75-6.61-.12-1.8-1.2-3.38-2.8-4.1-1.46-.67-2.84-.47-4.15,.12,.49-6.06,5.22-15.64,13.52-27.04l.06-.08c1.89-2.73,1.6-4.91,1.03-6.26-.93-2.19-2.8-2.97-4.44-3.33,1.11-1.51,2.61-3.37,3.76-4.8,5.93-7.34,10.21-12.64,7.77-17.33-.65-1.26-1.73-2.22-3.03-2.7,.09-.09,.19-.18,.28-.27,4.3-4.06,10.17-9.63,15.28-16.64,6.16-8.47,9.68-17.13,10.47-25.75,1.23-6.63,5.08-9.94,8.92-13.04,.15,1.89,.34,3.9,.56,5.98,1.46,13.28,3.82,21.78,7.21,25.98l6.6-5.69c-3.98-4.92-6.94-25.91-6.42-38.24v-.03c.04-4.88,3.29-19.18,9.34-33.69,3.14-7.51,6.59-13.94,9.99-18.58,3.61-4.94,7.19-7.93,10.34-8.65,4.73-1.08,10.27,5.48,14.08,11.17,5.46,8.14,10.38,18.94,13.99,26.82,4.43,9.71,5.81,12.57,8.19,13.79,1.44,.75,3.12,.82,6.8,.99,15.09,.69,50.43,2.29,54.9,47.54,.99,16.59,1.95,27.24,6.83,35.15,3.63,5.89,9.25,10.09,17.75,15.33-1.26,1.02-2.32,2.27-3.13,3.69-.85,1.51-1.43,3.17-1.7,4.9-22.34,2.98-31.34-5.83-38.64-12.97-4.97-4.86-10.11-9.88-17.79-7.62l-.18,.05-.17,.07c-31.84,12.47-39.38,5.82-46.69-.61-4.59-4.04-9.79-8.63-19.49-8.02l-.47,.03-.45,.14c-12.77,3.77-21.82,6.94-27.67,9.73-4.49,2.14-9.16,4.92-9.7,9.27-.43,3.43,1.72,5.68,3.74,7.15-7.22,5.25-10.05,8.77-10.23,12.47-.17,3.62,2.3,5.7,3.63,6.82,.09,.08,.19,.16,.29,.25-2.8,5.1-5.44,11.39-2.5,15.91,3.05,4.68,9.24,3.82,14.21,3.13,.91-.13,2.12-.3,3.04-.37,1.51,3.66,3.71,7.48,7.43,8.51,3.94,1.09,6.99-1.44,9.21-3.29,.73-.6,1.9-1.58,2.48-1.8,.1,.07,.19,.14,.27,.22,6.27,6.17,11.49,8.14,16.18,8.14,4.21,0,7.99-1.59,11.71-3.15,4.11-1.73,8.36-3.52,14.01-3.79,16.88,1.91,31.88,2.84,44.99,2.79,6.48,12.51,14.71,22.12,25.06,29.28,10,6.92,20.73,10.79,31.11,14.53,17.35,6.24,33.72,12.15,45.96,31.57,8.88,14.06,14.89,34.4,18.13,61.57Z"/>
      </g>
    </g>
  </g>
</svg>