<?xml version="1.0" encoding="UTF-8"?>
<svg id="Logo" xmlns="http://www.w3.org/2000/svg" viewBox="0 0 1920 1920">
  <defs>
    <style>
      .cls-1 {
        fill: #fff;
      }
    </style>
  </defs>
  <g id="Fox">
    <g id="Ear">
      <path class="cls-1" d="M1081.82,627.03c-33.68-17.68-68.72-26.52-99.33-31.16,19.68-22.93,49.8-56.43,83.8-88.75,73.92-70.26,133.82-104.32,168.68-95.86,6.17,1.49,10.08,4.85,13.03,11.2,4.71,10.08,8.53,31.45,.04,76-5.91,30.93-16.92,68.52-32.75,111.69-14.49,39.53-30.42,76.56-42.22,102.68-2.1-3.52-4.29-6.96-6.55-10.33-21.35-31.77-49.84-57.17-84.71-75.47Z"/>
    </g>
    <g id="Muzzle">
      <path class="cls-1" d="M539.56,1203.71c7.84-14.37,5.38-25.86,1.92-32.97-3.7-7.6-9.62-12.52-14.01-16.13,4.18-4.81,14.43-14.42,39.37-31.1,11.32-6.3,17.16-14.58,17.39-24.63,.36-15.81-13.36-23.93-22.43-29.31-.22-.13-.46-.27-.7-.41,4.91-3.05,12.92-7.28,25.9-12.73,24.94-10.48,62.16-22.83,110.66-36.73,27.5-1.08,41.21,10.65,60.02,26.7,18.8,16.07,42.2,36.06,82.69,42.1,8.12,1.21,16.75,1.82,25.88,1.82,39.17,0,87.85-11.18,147.73-33.85,12.21-3.14,21.3,4.15,43.37,25.09,35.9,34.06,89.29,84.73,211.6,69.22,1.73,4.53,3.9,8.95,6.48,13.21,10.14,16.67,25.26,28.03,42.48,32.45-5.82,11.22-19.89,26.74-53.59,40.44-53.31,21.65-166.81,41.94-404.79,15.67l-1.46-.16-1.47,.05c-34.1,1.26-59.67,11.7-80.21,20.08-34.55,14.1-50.31,20.53-86.98-14.54l-.38-.34c-15.13-13.76-30.14-12.91-40.07-9.78-10.04,3.17-17.97,9.57-24.97,15.22-2.29,1.85-5.42,4.37-7.76,5.92-1.86-2.41-5.05-7.53-9.16-17.93-1.42-5.62-4.64-10.54-9.27-14.1-11.53-8.87-27.26-6.75-45.48-4.29-6.78,.91-19.71,2.65-26.38,2.01,.74-4.26,3.53-13.43,13.4-30.58l.22-.41Z"/>
    </g>
    <g id="Nose">
      <circle class="cls-1" cx="1334.85" cy="1128.37" r="30.51"/>
    </g>
    <g id="Body">
      <path class="cls-1" d="M1624.28,1922.55H470.82c-23.6-71.08-38.92-155.3-43.18-254.92-.31-7.25-.56-12.97-.88-17.21-.47-6.27-1.18-15.76-10.04-21.66-13.21-8.8-27.89-2.24-39.72,3.13,0-7.02,.19-15.53,.36-23.07,1.48-65.31,.62-109.26-23.82-124.54-12.52-7.83-24.39-9.52-35.3-5.01-4.92,2.04-8.72,4.99-11.8,8.06-1.56-11.69-2.44-33.31,.76-72.53,3.51-42.93,10.43-89.53,14.56-117.37,3.41-22.94,3.83-26.08,3.51-29.81-.71-8.33-5.57-15.24-12.99-18.47-6.8-2.96-13.22-2.1-19.28,.54,2.26-27.32,24.28-70.53,62.82-121.91l.28-.37c8.78-12.3,7.45-22.12,4.79-28.2-4.34-9.87-13.02-13.41-20.62-15.01,5.15-6.81,12.14-15.21,17.49-21.63,27.56-33.1,47.47-57.01,36.11-78.11-2.43-4.54-6.69-9.42-14.09-12.16,.44-.41,.88-.81,1.31-1.21,19.95-18.32,47.28-43.41,70.96-75,28.62-38.17,44.99-77.22,48.65-116.07,5.71-29.88,23.63-44.82,41.44-58.78,.7,8.5,1.56,17.59,2.62,26.95,6.78,59.89,17.75,98.2,33.52,117.13l30.77-25.65c-18.48-22.17-32.24-116.83-29.83-172.38v-.13c.19-21.96,15.28-86.47,43.42-151.88,14.57-33.87,30.62-62.83,46.42-83.76,16.79-22.25,33.4-35.73,48.05-38.99,21.97-4.88,47.71,24.69,65.44,50.35,25.37,36.71,48.26,85.37,64.98,120.9,20.6,43.79,27.04,56.66,38.05,62.16,6.7,3.36,14.5,3.7,31.6,4.46,70.15,3.09,234.37,10.31,255.13,214.31,4.62,74.79,9.09,122.8,31.76,158.47,16.88,26.54,43.02,45.51,82.5,69.13-7.11,5.55-11.74,11.73-14.61,16.62-3.96,6.73-6.56,14.21-7.83,22.06-103.81,13.43-145.65-26.27-179.6-58.47-23.09-21.91-46.96-44.56-82.66-34.37l-.82,.23-.79,.3c-147.98,56.19-183.05,26.23-216.95-2.73-21.34-18.22-45.52-38.89-90.56-36.14l-2.18,.13-2.1,.61c-59.34,16.95-101.4,31.3-128.61,43.88-20.88,9.66-42.56,22.18-45.1,41.8-1.99,15.47,8,25.6,17.4,32.22-33.56,23.69-46.71,39.54-47.53,56.23-.8,16.3,10.69,25.71,16.86,30.76,.41,.34,.88,.72,1.35,1.11-13.02,23.03-25.3,51.35-11.61,71.73,14.17,21.11,42.94,17.22,66.06,14.1,4.23-.57,9.85-1.33,14.13-1.65,6.99,16.49,17.25,33.74,34.51,38.37,18.31,4.93,32.47-6.5,42.81-14.84,3.38-2.71,8.85-7.13,11.53-8.09,.29,.19,.71,.5,1.26,.98,29.15,27.81,53.42,36.69,75.2,36.69,19.56,0,37.12-7.16,54.39-14.21,19.1-7.8,38.85-15.86,65.13-17.09,78.46,8.61,148.24,12.81,209.09,12.6,30.13,56.41,68.37,99.72,116.5,132,46.48,31.18,96.36,48.63,144.6,65.51,80.57,28.18,156.65,54.79,213.62,142.37,41.21,63.37,69.14,155.06,84.23,277.52Z"/>
    </g>
  </g>
</svg>